{"title":"Nailbiter 2012 DVDRiP AC3-5 1 XviD-AXED","uid":7387236,"size":1747034942,"categoryP":"video","categoryS":"movies","magnet":"?xt=urn:btih:3b18389aee694a7217751c3f176f5f53d6dd81dc&amp;dn=Nailbiter+2012+DVDRiP+AC3-5+1+XviD-AXED&amp;tr=udp%3A%2F%2Ftracker.openbittorrent.com%3A80&amp;tr=udp%3A%2F%2Fopen.demonii.com%3A1337&amp;tr=udp%3A%2F%2Ftracker.coppersurfer.tk%3A6969&amp;tr=udp%3A%2F%2Fexodus.desync.com%3A6969","seeders":0,"leechers":1,"uploader":"neon","files":-1,"time":1340667232,"description":" &lt;a href=&quot;http://www.imdb.com/title/tt2122424/&quot; rel=&quot;nofollow&quot; target=&quot;_NEW&quot;&gt;http://www.imdb.com/title/tt2122424/&lt;/a&gt;\n \nPLOT INFO:\n A mother and three daughters get caught up in a tornado and take shelter in a storm cellar. While trapped inside the cellar, they quickly discover that they are not alone.\n &lt;a href=&quot;\nhttp://www.shotpix.com/images/47103688438666373542.png&quot; rel=&quot;nofollow&quot; target=&quot;_NEW&quot;&gt;\nhttp://www.shotpix.com/images/47103688438666373542.png&lt;/a&gt; &lt;a href=&quot;\nhttp://www.shotpix.com/images/41299518859171122504.png&quot; rel=&quot;nofollow&quot; target=&quot;_NEW&quot;&gt;\nhttp://www.shotpix.com/images/41299518859171122504.png&lt;/a&gt;\n \nGeneral\n Complete name : Nailbiter.2012.DVDRiP.AC3-5.1.XviD-AXED.avi\n Format : AVI\n Format/Info : Audio Video Interleave\n File size : 1.61 GiB\n Duration : 1h 21mn\n Overall bit rate : 2 827 Kbps\n \nVideo\n ID : 0\n Format : MPEG-4 Visual\n Format profile : Advanced Simple@L5\n Format settings, BVOP : 1\n Format settings, QPel : No\n Format settings, GMC : No warppoints\n Format settings, Matrix : Default (H.263)\n Codec ID : XVID\n Codec ID/Hint : XviD\n Duration : 1h 21mn\n Bit rate : 2 435 Kbps\n Width : 720 pixels\n Height : 304 pixels\n Display aspect ratio : 2.35:1\n Frame rate : 23.976 fps\n Color space : YUV\n Chroma subsampling : 4:2:0\n Bit depth : 8 bits\n Scan type : Progressive\n Compression mode : Lossy\n Bits/(Pixel*Frame) : 0.464\n Stream size : 1.39 GiB (86%)\n Writing library : XviD 1.2.1 (UTC 2008-12-04)\n \nAudio\n ID : 1\n Format : AC-3\n Format/Info : Audio Coding 3\n Mode extension : CM (complete main)\n Codec ID : 2000\n Duration : 1h 21mn\n Bit rate mode : Constant\n Bit rate : 384 Kbps\n Channel(s) : 6 channels\n Channel positions : Front: L C R, Side: L R, LFE\n Sampling rate : 48.0 KHz\n Bit depth : 16 bits\n Compression mode : Lossy\n Stream size : 224 MiB (14%)\n Alignment : Aligned on interleaves\n Interleave, duration : 64 ms (1.53 video frames)\n Interleave, preload duration : 192 ms\n Title : VTS_01_1 T80 3_2ch 448Kbps DELAY 0ms_new","torrent":{"xt":"urn:btih:3b18389aee694a7217751c3f176f5f53d6dd81dc","amp;dn":"Nailbiter+2012+DVDRiP+AC3-5+1+XviD-AXED","amp;tr":["udp%3A%2F%2Ftracker.openbittorrent.com%3A80","udp%3A%2F%2Fopen.demonii.com%3A1337","udp%3A%2F%2Ftracker.coppersurfer.tk%3A6969","udp%3A%2F%2Fexodus.desync.com%3A6969"],"infoHash":"3b18389aee694a7217751c3f176f5f53d6dd81dc","infoHashBuffer":{"type":"Buffer","data":[59,24,56,154,238,105,74,114,23,117,28,63,23,111,95,83,214,221,129,220]},"announce":[],"urlList":[]}}